<?xml version="1.0" ?><svg id="Layer_1" style="enable-background:new 0 0 500 500;" version="1.1" viewBox="0 0 500 500" xml:space="preserve" xmlns="http://www.w3.org/2000/svg" xmlns:xlink="http://www.w3.org/1999/xlink"><style type="text/css">
	.st0{fill:#F26E91;}
	.st1{fill:#00A779;}
	.st2{fill:#C4FFC9;}
	.st3{fill:#AB630A;}
	.st4{fill:#C98C40;}
	.st5{fill:#15AA78;}
	.st6{fill:#FF9000;}
	.st7{fill:#FCEECF;}
	.st8{fill:#FFE940;}
	.st9{fill:#F0E3CE;}
	.st10{fill:#FFB5C5;}
	.st11{fill:#91EDFF;}
	.st12{fill:#7191F0;}
	.st13{fill:#363636;}
	.st14{fill:#565656;}
	.st15{fill:#F3DF4D;}
	.st16{fill:#CD4A77;}
	.st17{fill:#577AE6;}
	.st18{fill:#F4D100;}
</style><g id="ball"><g><path class="st8" d="M349.53,107.93C271.07,52.96,162.9,72,107.93,150.46S72,337.1,150.46,392.07    C111.81,128.64,349.52,107.93,349.53,107.93z"/><path class="st12" d="M392.07,349.53c54.97-78.46,35.93-186.63-42.54-241.61c0,0.01,25.7,229.82-199.07,284.14    C228.93,447.04,337.1,428,392.07,349.53z"/><path class="st0" d="M349.54,107.93C349.53,107.93,349.53,107.93,349.54,107.93C349.53,107.93,349.53,107.93,349.54,107.93    c-0.02,0-237.73,20.71-199.07,284.14l0,0l0,0C375.23,337.74,349.54,107.94,349.54,107.93z"/></g><ellipse class="st9" cx="329.55" cy="136.45" rx="20.38" ry="43.02" transform="matrix(0.5738 -0.819 0.819 0.5738 28.7066 328.0603)"/></g></svg>