<?xml version="1.0" ?><svg id="Layer_1" style="enable-background:new 0 0 500 500;" version="1.1" viewBox="0 0 500 500" xml:space="preserve" xmlns="http://www.w3.org/2000/svg" xmlns:xlink="http://www.w3.org/1999/xlink"><style type="text/css">
	.st0{fill:#F26E91;}
	.st1{fill:#00A779;}
	.st2{fill:#C4FFC9;}
	.st3{fill:#AB630A;}
	.st4{fill:#C98C40;}
	.st5{fill:#15AA78;}
	.st6{fill:#FF9000;}
	.st7{fill:#FCEECF;}
	.st8{fill:#FFE940;}
	.st9{fill:#F0E3CE;}
	.st10{fill:#FFB5C5;}
	.st11{fill:#91EDFF;}
	.st12{fill:#7191F0;}
	.st13{fill:#363636;}
	.st14{fill:#565656;}
	.st15{fill:#F3DF4D;}
	.st16{fill:#96999B;}
	.st17{fill:#CD4A77;}
	.st18{fill:#577AE6;}
	.st19{fill:none;stroke:#577AE6;stroke-width:7;stroke-miterlimit:10;}
	.st20{fill:#F4D100;}
</style><g id="coconut"><g><g><path class="st4" d="M224.79,122.99h30.15c83.19,0,150.63,67.44,150.63,150.63v30.16c0,91.51-74.19,165.7-165.7,165.7h0     c-91.51,0-165.7-74.19-165.7-165.7v-30.16C74.17,190.43,141.61,122.99,224.79,122.99z"/><ellipse class="st9" cx="243.79" cy="194.46" rx="91.23" ry="45.48"/></g><g><g><path class="st3" d="M259.15,285.41c-0.53,0-1.06-0.17-1.51-0.51c-1.1-0.83-1.32-2.4-0.48-3.5l14.33-18.93      c0.83-1.1,2.4-1.32,3.5-0.48s1.32,2.4,0.48,3.5l-14.33,18.93C260.65,285.07,259.91,285.41,259.15,285.41z"/></g><g><path class="st3" d="M279.17,348.56c-0.53,0-1.06-0.17-1.51-0.51c-1.1-0.83-1.32-2.4-0.48-3.5l14.33-18.93      c0.83-1.1,2.4-1.32,3.5-0.48c1.1,0.83,1.32,2.4,0.48,3.5l-14.33,18.93C280.68,348.22,279.93,348.56,279.17,348.56z"/></g><g><path class="st3" d="M119.33,291.9c-0.53,0-1.06-0.17-1.51-0.51c-1.1-0.83-1.32-2.4-0.48-3.5l14.33-18.93      c0.83-1.1,2.4-1.32,3.5-0.48c1.1,0.83,1.32,2.4,0.48,3.5l-14.33,18.93C120.83,291.56,120.08,291.9,119.33,291.9z"/></g><g><path class="st3" d="M328.51,393.38c-0.53,0-1.06-0.17-1.51-0.51c-1.1-0.83-1.32-2.4-0.48-3.5l14.33-18.93      c0.83-1.1,2.4-1.32,3.5-0.48c1.1,0.83,1.32,2.4,0.48,3.5l-14.33,18.93C330.01,393.04,329.26,393.38,328.51,393.38z"/></g><g><path class="st3" d="M248.87,434.47c-0.53,0-1.06-0.17-1.51-0.51c-1.1-0.83-1.32-2.4-0.48-3.5l14.33-18.93      c0.83-1.1,2.4-1.32,3.5-0.48c1.1,0.83,1.32,2.4,0.48,3.5l-14.33,18.93C250.37,434.13,249.62,434.47,248.87,434.47z"/></g><g><path class="st3" d="M207.81,343.45c-0.76,0-1.5-0.34-2-0.99l-14.33-18.93c-0.83-1.1-0.62-2.67,0.48-3.5      c1.1-0.83,2.67-0.62,3.5,0.48l14.33,18.93c0.83,1.1,0.62,2.67-0.48,3.5C208.86,343.29,208.33,343.45,207.81,343.45z"/></g><g><path class="st3" d="M372.39,310.83c-0.76,0-1.5-0.34-2-0.99l-14.33-18.93c-0.83-1.1-0.62-2.67,0.48-3.5      c1.1-0.83,2.67-0.62,3.5,0.48l14.33,18.93c0.83,1.1,0.62,2.67-0.48,3.5C373.44,310.67,372.91,310.83,372.39,310.83z"/></g><g><path class="st3" d="M182.44,410.34c-0.76,0-1.5-0.34-2-0.99l-14.33-18.93c-0.83-1.1-0.62-2.67,0.48-3.5      c1.1-0.83,2.67-0.62,3.5,0.48l14.33,18.93c0.83,1.1,0.62,2.67-0.48,3.5C183.5,410.18,182.97,410.34,182.44,410.34z"/></g><g><path class="st3" d="M126.49,365.32c-0.76,0-1.5-0.34-2-0.99l-14.33-18.93c-0.83-1.1-0.62-2.67,0.48-3.5      c1.1-0.83,2.67-0.62,3.5,0.48l14.33,18.93c0.83,1.1,0.62,2.67-0.48,3.5C127.55,365.15,127.02,365.32,126.49,365.32z"/></g></g></g><path class="st0" d="M250.21,239.81c10.04-0.35,19.65-1.5,28.53-3.34l24.87-76.36l29.73-91.32c1.32-4.06,5.62-6.33,9.72-5.14   l70.7,20.57c3.13,0.91,6.41-0.83,7.42-3.92l4.36-13.39c1.05-3.22-0.76-6.67-4.01-7.64l-95.05-28.42c-4.11-1.23-8.45,1.04-9.77,5.12   L250.21,239.81z"/><g><path class="st3" d="M177.5,163.22l-16.66-39.92l-4.29,1.8l16.87,40.42l28.99,69.48c1.83,0.46,3.69,0.9,5.59,1.3L177.5,163.22z"/><g><path class="st6" d="M135.6,46.56c0,0,76.6-26.13,107.15,54.81c0,0-24.83,0.54-43.45,23.27     C199.31,124.64,196.21,62.89,135.6,46.56z"/><path class="st0" d="M135.6,46.56c0,0-76.01,24.84-51.88,108.52c0,0,24.81-15.01,50.22-5.57     C133.95,149.51,96.91,96.22,135.6,46.56z"/><path class="st12" d="M133.95,149.51c0,0,21.34-34.98,65.36-24.87c0,0-2.81-62.74-63.7-78.08     C135.6,46.56,95.86,91.46,133.95,149.51z"/></g></g></g></svg>