<?xml version="1.0" ?><svg id="Layer_1" style="enable-background:new 0 0 500 500;" version="1.1" viewBox="0 0 500 500" xml:space="preserve" xmlns="http://www.w3.org/2000/svg" xmlns:xlink="http://www.w3.org/1999/xlink"><style type="text/css">
	.st0{fill:#F26E91;}
	.st1{fill:#00A779;}
	.st2{fill:#C4FFC9;}
	.st3{fill:#AB630A;}
	.st4{fill:#C98C40;}
	.st5{fill:#15AA78;}
	.st6{fill:#FF9000;}
	.st7{fill:#FCEECF;}
	.st8{fill:#FFE940;}
	.st9{fill:#F0E3CE;}
	.st10{fill:#FFB5C5;}
	.st11{fill:#91EDFF;}
	.st12{fill:#7191F0;}
	.st13{fill:#363636;}
	.st14{fill:#565656;}
	.st15{fill:#F3DF4D;}
	.st16{fill:#CD4A77;}
	.st17{fill:#577AE6;}
	.st18{fill:#F4D100;}
</style><g id="fan"><g><g><polygon class="st17" points="272.52,344.52 251.78,344.52 248.22,344.52 227.48,344.52 204.19,426.37 248.64,426.37      251.36,426.37 295.81,426.37    "/></g><path class="st17" d="M155.75,447.64L155.75,447.64c0,12.87,10.43,23.3,23.3,23.3h141.89c12.87,0,23.3-10.43,23.3-23.3v0    c0-12.87-10.43-23.3-23.3-23.3H179.05C166.19,424.34,155.75,434.78,155.75,447.64z M233.24,442.34c-3.34,0.63-6.21-2.24-5.58-5.58    c0.35-1.85,1.87-3.37,3.72-3.72c3.34-0.63,6.21,2.24,5.58,5.58C236.61,440.47,235.09,441.99,233.24,442.34z M250.93,442.34    c-3.34,0.63-6.21-2.24-5.58-5.58c0.35-1.85,1.87-3.37,3.72-3.72c3.34-0.63,6.21,2.24,5.58,5.58    C254.3,440.47,252.78,441.99,250.93,442.34z M268.61,442.34c-3.34,0.63-6.21-2.24-5.58-5.58c0.35-1.85,1.87-3.37,3.72-3.72    c3.34-0.63,6.21,2.24,5.58,5.58C271.99,440.47,270.47,441.99,268.61,442.34z"/></g><g><g><g><path class="st17" d="M250,348.02c-88.9,0-161.23-72.33-161.23-161.23S161.1,25.56,250,25.56s161.23,72.33,161.23,161.23      S338.9,348.02,250,348.02z M250,32.56c-85.04,0-154.23,69.19-154.23,154.23c0,85.04,69.19,154.23,154.23,154.23      c85.04,0,154.23-69.19,154.23-154.23C404.23,101.75,335.04,32.56,250,32.56z"/></g><g><path class="st17" d="M248.34,186.65c0,0-31.93-61.8-28.46-108.01c0.47-6.31,3.9-12.01,9.2-15.46      c16.24-10.58,55.49-28.49,102.55,4.03c7.41,5.12,8.48,15.64,2.24,22.13c-19.02,19.81-63.65,62.09-73.25,97.44L248.34,186.65z"/><path class="st17" d="M249.79,179.12c0,0,61.8-31.93,108.01-28.46c6.31,0.47,12.01,3.9,15.46,9.2      c10.58,16.24,28.49,55.49-4.03,102.55c-5.12,7.41-15.64,8.48-22.13,2.24c-19.81-19.02-62.09-63.65-97.44-73.25L249.79,179.12z"/><path class="st17" d="M260.16,186.92c0,0,31.93,61.8,28.46,108.01c-0.47,6.31-3.9,12.01-9.2,15.46      c-16.24,10.58-55.49,28.49-102.55-4.03c-7.41-5.12-8.48-15.64-2.24-22.13c19.02-19.81,63.65-62.09,73.25-97.44L260.16,186.92z"/><path class="st17" d="M250.21,191.09c0,0-61.8,31.93-108.01,28.46c-6.31-0.47-12.01-3.9-15.46-9.2      c-10.58-16.24-28.49-55.49,4.03-102.55c5.12-7.41,15.64-8.48,22.13-2.24c19.81,19.02,62.09,63.65,97.44,73.25L250.21,191.09z"/></g></g><circle class="st11" cx="248.24" cy="186.43" r="25.42"/></g></g></svg>