<?xml version="1.0" ?><svg id="Layer_1" style="enable-background:new 0 0 500 500;" version="1.1" viewBox="0 0 500 500" xml:space="preserve" xmlns="http://www.w3.org/2000/svg" xmlns:xlink="http://www.w3.org/1999/xlink"><style type="text/css">
	.st0{fill:#F26E91;}
	.st1{fill:#00A779;}
	.st2{fill:#C4FFC9;}
	.st3{fill:#AB630A;}
	.st4{fill:#C98C40;}
	.st5{fill:#15AA78;}
	.st6{fill:#FF9000;}
	.st7{fill:#FCEECF;}
	.st8{fill:#FFE940;}
	.st9{fill:#F0E3CE;}
	.st10{fill:#FFB5C5;}
	.st11{fill:#91EDFF;}
	.st12{fill:#7191F0;}
	.st13{fill:#363636;}
	.st14{fill:#565656;}
	.st15{fill:#F3DF4D;}
	.st16{fill:#CD4A77;}
	.st17{fill:#577AE6;}
	.st18{fill:#F4D100;}
</style><g id="icecream"><polygon class="st4" points="336.54,222.24 327.04,249.82 324.06,258.48 324.05,258.48 300.38,327.21 298.66,332.21 288.48,361.77    288.47,361.78 285.49,370.44 278.15,391.75 276.43,396.75 251.42,469.34 208.07,343.49 208.04,343.41 207.83,342.8 207.83,342.79    169.47,231.44 166.48,222.76 166.3,222.24  "/><polygon class="st3" points="327.04,249.82 324.06,258.48 324.05,258.48 268.16,302.08 300.38,327.21 298.66,332.21 264.1,305.25    215.68,343.02 264.1,380.79 288.47,361.78 285.49,370.44 268.16,383.96 278.15,391.75 276.43,396.75 264.1,387.13 231.79,412.33    230.07,407.34 260.03,383.96 211.62,346.19 209.56,347.8 208.07,343.49 208.04,343.41 207.83,342.8 207.83,342.79 205.06,334.73    211.62,339.85 260.03,302.08 169.47,231.44 166.48,222.76 166.49,222.77 264.1,298.91  "/><circle class="st0" cx="236.19" cy="89.16" r="70.59"/><circle class="st8" cx="306.78" cy="178.6" r="70.59"/><circle class="st12" cx="197.05" cy="178.6" r="70.59"/></g></svg>