<?xml version="1.0" ?><svg id="Layer_1" style="enable-background:new 0 0 500 500;" version="1.1" viewBox="0 0 500 500" xml:space="preserve" xmlns="http://www.w3.org/2000/svg" xmlns:xlink="http://www.w3.org/1999/xlink"><style type="text/css">
	.st0{fill:#F26E91;}
	.st1{fill:#00A779;}
	.st2{fill:#C4FFC9;}
	.st3{fill:#AB630A;}
	.st4{fill:#C98C40;}
	.st5{fill:#15AA78;}
	.st6{fill:#FF9000;}
	.st7{fill:#FCEECF;}
	.st8{fill:#FFE940;}
	.st9{fill:#F0E3CE;}
	.st10{fill:#FFB5C5;}
	.st11{fill:#91EDFF;}
	.st12{fill:#7191F0;}
	.st13{fill:#363636;}
	.st14{fill:#565656;}
	.st15{fill:#F3DF4D;}
	.st16{fill:#96999B;}
	.st17{fill:#CD4A77;}
	.st18{fill:#577AE6;}
	.st19{fill:none;stroke:#577AE6;stroke-width:7;stroke-miterlimit:10;}
	.st20{fill:#F4D100;}
</style><g id="jug"><g><path class="st11" d="M451.56,209.6c-1.92-61.06-51.81-110.54-112.88-112.01c-13.19-0.32-25.9,1.58-37.77,5.33    c2.5-17.05,7.66-35.03,16.54-53.55C207.62,18.97,84.7,48.77,84.7,48.77s-7.62,2.12-11.79,9.05c0,0,34.61,4.34,39.3,50.09    c0,0,17.01,84.46-34.61,139.6c0,0-70.26,82.12,7.1,181.24l17.43,20.39c4.8,5.62,11.27,9.56,18.47,11.25    c29.07,6.83,108.94,21.81,178.88,0.19c6.09-1.88,11.56-5.4,15.78-10.18c4.54-5.16,10.94-12.86,17.49-22.23    c0,0,78.6-96.19,2.93-186.52c0,0-35.99-45.98-36.64-111.21c0.41-0.2,16.71-8.11,37.48-7.77c48.56,0.81,88.66,39.64,89.95,88.19    c0.74,27.65-10.91,52.59-29.79,69.69c-4.77,4.32-5.6,11.48-1.84,16.7c4.4,6.11,13.11,6.98,18.69,1.93    C437.78,277.23,452.68,245.14,451.56,209.6z"/><path class="st6" d="M296.98,189.2H120.53c-3.93,21.68-12.77,45.49-31.21,65.19c0,0-64.1,74.92,6.48,165.35l15.9,18.6    c4.38,5.13,10.28,8.72,16.85,10.26c26.52,6.23,99.39,19.9,163.19,0.18c5.56-1.72,10.55-4.93,14.39-9.29    c4.15-4.71,9.98-11.74,15.96-20.28c0,0,71.71-87.76,2.68-170.17C324.77,249.04,306.52,225.72,296.98,189.2z"/></g><g><g><path class="st11" d="M115.74,302.67l28.53-10.38c2.76-1.01,5.82,0.42,6.82,3.18l10.38,28.53c1.01,2.76-0.42,5.82-3.18,6.82     l-28.53,10.38c-2.76,1.01-5.82-0.42-6.82-3.18l-10.38-28.53C111.55,306.73,112.98,303.67,115.74,302.67z"/><path class="st11" d="M225.52,227.82L251.81,243c2.55,1.47,3.42,4.72,1.95,7.27l-15.18,26.29c-1.47,2.55-4.72,3.42-7.27,1.95     l-26.29-15.18c-2.55-1.47-3.42-4.72-1.95-7.27l15.18-26.29C219.72,227.22,222.98,226.35,225.52,227.82z"/><path class="st11" d="M251.67,369.92l26.29,15.18c2.55,1.47,3.42,4.72,1.95,7.27l-15.18,26.29c-1.47,2.55-4.72,3.42-7.27,1.95     l-26.29-15.18c-2.55-1.47-3.42-4.72-1.95-7.27l15.18-26.29C245.87,369.32,249.12,368.45,251.67,369.92z"/></g><g><g><circle class="st20" cx="279.13" cy="316.74" r="31.38"/><circle class="st8" cx="279.13" cy="316.74" r="22.19"/></g><g><circle class="st20" cx="151.3" cy="387.8" r="31.38"/><circle class="st8" cx="151.3" cy="387.8" r="22.19"/></g></g></g></g></svg>