<?xml version="1.0" ?><svg id="Layer_1" style="enable-background:new 0 0 500 500;" version="1.1" viewBox="0 0 500 500" xml:space="preserve" xmlns="http://www.w3.org/2000/svg" xmlns:xlink="http://www.w3.org/1999/xlink"><style type="text/css">
	.st0{fill:#F26E91;}
	.st1{fill:#00A779;}
	.st2{fill:#C4FFC9;}
	.st3{fill:#AB630A;}
	.st4{fill:#C98C40;}
	.st5{fill:#15AA78;}
	.st6{fill:#FF9000;}
	.st7{fill:#FCEECF;}
	.st8{fill:#FFE940;}
	.st9{fill:#F0E3CE;}
	.st10{fill:#FFB5C5;}
	.st11{fill:#91EDFF;}
	.st12{fill:#7191F0;}
	.st13{fill:#363636;}
	.st14{fill:#565656;}
	.st15{fill:#F3DF4D;}
	.st16{fill:#CD4A77;}
	.st17{fill:#577AE6;}
	.st18{fill:#F4D100;}
</style><g id="bucket__x26__sand"><g id="spade"><path class="st13" d="M188.96,467.12c-64.67-51.14,1.32-153.17,1.32-153.17c41.55,19.66,52.92,11.73,52.92,11.73l17.51,8.04    c0,0,1.39,13.78,43.38,32.51c0,0-34.42,116.53-115.34,100.79"/><g><g><rect class="st9" height="19.27" transform="matrix(0.4174 -0.9087 0.9087 0.4174 -10.5276 401.0529)" width="188.43" x="213.31" y="199.1"/><path class="st14" d="M262.15,284.42l-46.48,101.18c-2.22,4.83-0.1,10.56,4.73,12.78c4.83,2.22,10.56,0.1,12.78-4.73      l46.48-101.18L262.15,284.42z"/></g><path class="st4" d="M410.49,54.98l-53.39-24.53c-3.64-1.67-7.95-0.08-9.62,3.56l-11.13,24.23c-0.94,2.04-1.41,4.27-1.31,6.51     c0.53,12.35,4.69,23.29,11.97,30.67l-0.24-0.11l-11.38,24.78l21.24,9.76l11.38-24.78l-0.24-0.11     c10.35,0.72,21.35-3.25,31.07-10.9c1.77-1.39,3.15-3.2,4.09-5.24l11.13-24.23C415.72,60.96,414.13,56.65,410.49,54.98z      M391.98,83.36c-0.62,1.36-1.55,2.57-2.72,3.49c-8.91,7.01-19.43,9.41-28.22,5.38c-8.79-4.04-13.81-13.59-14.3-24.91     c-0.07-1.49,0.25-2.98,0.87-4.34l7.42-16.15c1.11-2.43,3.99-3.49,6.42-2.38l35.58,16.34c2.43,1.11,3.49,3.99,2.38,6.42     L391.98,83.36L391.98,83.36z"/></g></g><g><path class="st4" d="M340.97,188.06c-7,0-13.42,2.46-18.46,6.55c-2.74-13.35-14.55-23.4-28.72-23.4c-3.07,0-6.02,0.47-8.8,1.35    c-4.21-11.02-14.88-18.85-27.38-18.85c-10.67,0-20.01,5.71-25.14,14.23c-4.22-2.35-9.08-3.7-14.25-3.7    c-13.01,0-24.03,8.47-27.86,20.2c-2.84-0.92-5.87-1.42-9.01-1.42c-4.5,0-8.75,1.02-12.56,2.82c-5.37-6.74-13.65-11.07-22.94-11.07    c-12.5,0-23.16,7.82-27.38,18.83c-15.39,0.89-27.59,13.65-27.59,29.26c0,16.19,13.12,29.31,29.31,29.31    c4.15,0,8.1-0.87,11.68-2.43c3.58,1.56,7.53,2.43,11.68,2.43c10.41,0,19.54-5.43,24.74-13.6c3.93,1.96,8.36,3.06,13.05,3.06    c0.81,0,1.61-0.04,2.41-0.11c3.9,1.92,8.29,3.01,12.94,3.01c8.79,0,16.68-3.88,22.05-10.01c5.33,7.36,13.98,12.15,23.75,12.15    c7.64,0,14.59-2.92,19.81-7.71c6.06-0.98,11.5-3.81,15.72-7.9c3.55,12.19,14.8,21.11,28.14,21.11c8.26,0,15.72-3.42,21.05-8.93    c4.1,2.19,8.79,3.43,13.76,3.43c16.19,0,29.31-13.12,29.31-29.31S357.16,188.06,340.97,188.06z"/><g><g><polygon class="st6" points="100.83,229.84 131.19,470.21 329.96,470.21 360.33,229.84     "/></g><g><path class="st8" d="M359.06,272.19H102.09c-2.34,0-4.23-1.9-4.23-4.23v-33.89c0-2.34,1.9-4.23,4.23-4.23h256.97      c2.34,0,4.23,1.9,4.23,4.23v33.89C363.3,270.3,361.4,272.19,359.06,272.19z"/><g><rect class="st15" height="22.67" width="12.83" x="85.29" y="239.68"/><rect class="st15" height="22.67" width="12.83" x="363.05" y="239.68"/></g></g><path class="st12" d="M366.13,262.35c-6.47,69.18-64.68,123.33-135.56,123.33S101.49,331.53,95.02,262.35h-9.17     c6.5,74.23,68.8,132.46,144.72,132.46S368.8,336.58,375.3,262.35H366.13z"/></g></g></g></svg>