<?xml version="1.0" ?><svg id="Layer_1" style="enable-background:new 0 0 500 500;" version="1.1" viewBox="0 0 500 500" xml:space="preserve" xmlns="http://www.w3.org/2000/svg" xmlns:xlink="http://www.w3.org/1999/xlink"><style type="text/css">
	.st0{fill:#F26E91;}
	.st1{fill:#00A779;}
	.st2{fill:#C4FFC9;}
	.st3{fill:#AB630A;}
	.st4{fill:#C98C40;}
	.st5{fill:#15AA78;}
	.st6{fill:#FF9000;}
	.st7{fill:#FCEECF;}
	.st8{fill:#FFE940;}
	.st9{fill:#F0E3CE;}
	.st10{fill:#FFB5C5;}
	.st11{fill:#91EDFF;}
	.st12{fill:#7191F0;}
	.st13{fill:#363636;}
	.st14{fill:#565656;}
	.st15{fill:#F3DF4D;}
	.st16{fill:#CD4A77;}
	.st17{fill:#577AE6;}
	.st18{fill:#F4D100;}
</style><g id="pineapple"><g><path class="st6" d="M254.29,484.19h-8.57c-64.1,0-116.06-51.96-116.06-116.06v-75.22c0-64.1,51.96-116.06,116.06-116.06h8.57    c64.1,0,116.06,51.96,116.06,116.06v75.22C370.35,432.23,318.38,484.19,254.29,484.19z"/><g><g><g><g><path class="st7" d="M210.15,263.59c-0.7,0-1.4-0.29-1.9-0.87l-21.69-25.23l-21.69,25.23c-0.9,1.05-2.48,1.17-3.53,0.27        s-1.17-2.48-0.27-3.53l25.48-29.64l25.48,29.64c0.9,1.05,0.78,2.63-0.27,3.53C211.3,263.39,210.72,263.59,210.15,263.59z"/></g><g><path class="st7" d="M273.58,263.59c-0.7,0-1.4-0.29-1.9-0.87L250,237.49l-21.69,25.23c-0.9,1.05-2.48,1.17-3.53,0.27        c-1.05-0.9-1.17-2.48-0.27-3.53L250,229.82l25.48,29.64c0.9,1.05,0.78,2.63-0.27,3.53        C274.74,263.39,274.16,263.59,273.58,263.59z"/></g><g><path class="st7" d="M337.02,263.59c-0.7,0-1.4-0.29-1.9-0.87l-21.69-25.23l-21.69,25.23c-0.9,1.05-2.48,1.17-3.53,0.27        c-1.05-0.9-1.17-2.48-0.27-3.53l25.48-29.64l25.48,29.64c0.9,1.05,0.78,2.63-0.27,3.53        C338.18,263.39,337.6,263.59,337.02,263.59z"/></g></g><g><g><path class="st7" d="M210.15,383.17c-0.7,0-1.4-0.29-1.9-0.87l-21.69-25.22l-21.69,25.22c-0.9,1.05-2.48,1.17-3.53,0.27        c-1.05-0.9-1.17-2.48-0.27-3.53l25.48-29.63l25.48,29.63c0.9,1.05,0.78,2.63-0.27,3.53        C211.3,382.97,210.72,383.17,210.15,383.17z"/></g><g><path class="st7" d="M273.58,383.17c-0.7,0-1.4-0.29-1.9-0.87L250,357.07l-21.69,25.22c-0.9,1.05-2.48,1.17-3.53,0.27        c-1.05-0.9-1.17-2.48-0.27-3.53L250,349.4l25.48,29.63c0.9,1.05,0.78,2.63-0.27,3.53        C274.74,382.97,274.16,383.17,273.58,383.17z"/></g><g><path class="st7" d="M337.02,383.17c-0.7,0-1.4-0.29-1.9-0.87l-21.69-25.22l-21.69,25.22c-0.9,1.05-2.48,1.17-3.53,0.27        c-1.05-0.9-1.17-2.48-0.27-3.53l25.48-29.63l25.48,29.63c0.9,1.05,0.78,2.63-0.27,3.53        C338.18,382.97,337.6,383.17,337.02,383.17z"/></g></g></g><g><g><g><path class="st7" d="M195.05,322.16c-0.58,0-1.16-0.2-1.63-0.6c-1.05-0.9-1.17-2.48-0.27-3.53l25.48-29.63l25.48,29.63        c0.9,1.05,0.78,2.63-0.27,3.53c-1.05,0.9-2.63,0.78-3.53-0.27l-21.69-25.22l-21.69,25.22        C196.45,321.86,195.75,322.16,195.05,322.16z"/></g><g><path class="st7" d="M304.95,322.16c-0.7,0-1.4-0.29-1.9-0.87l-21.69-25.22l-21.69,25.22c-0.9,1.05-2.48,1.17-3.53,0.27        s-1.17-2.48-0.27-3.53l25.48-29.63l25.48,29.63c0.9,1.05,0.78,2.63-0.27,3.53C306.11,321.96,305.53,322.16,304.95,322.16z"/></g></g><g><g><path class="st7" d="M195.05,441.74c-0.58,0-1.16-0.2-1.63-0.6c-1.05-0.9-1.17-2.48-0.27-3.53l25.48-29.63l25.48,29.63        c0.9,1.05,0.78,2.63-0.27,3.53c-1.05,0.9-2.63,0.78-3.53-0.27l-21.69-25.22l-21.69,25.22        C196.45,441.45,195.75,441.74,195.05,441.74z"/></g><g><path class="st7" d="M304.95,441.74c-0.7,0-1.4-0.29-1.9-0.87l-21.69-25.22l-21.69,25.22c-0.9,1.05-2.48,1.17-3.53,0.27        c-1.05-0.9-1.17-2.48-0.27-3.53l25.48-29.63l25.48,29.63c0.9,1.05,0.78,2.63-0.27,3.53        C306.11,441.54,305.53,441.74,304.95,441.74z"/></g></g></g></g></g><g><g><path class="st5" d="M249.34,199.87c0,0,15.06-78.97,124.04-87.74C373.39,112.12,364.49,198.76,249.34,199.87z"/><path class="st5" d="M250.66,199.87c0,0-15.06-78.97-124.04-87.74C126.61,112.12,135.51,198.76,250.66,199.87z"/></g><path class="st5" d="M327.22,60.88c-53.15,31.25-71.25,69.27-76.65,97.63c-5.4-28.37-23.49-66.38-76.65-97.63    c0,0-31.1,85.5,76.64,138.98c0,0,0.01-0.02,0.01-0.03c0,0.01,0.01,0.03,0.01,0.03C358.32,146.38,327.22,60.88,327.22,60.88z"/><path class="st5" d="M250.58,199.87c0,0-57.75-97.19,0.08-184.06C250.66,15.81,294.43,91.96,250.58,199.87z"/></g></g></svg>