<?xml version="1.0" ?><svg id="Layer_1" style="enable-background:new 0 0 500 500;" version="1.1" viewBox="0 0 500 500" xml:space="preserve" xmlns="http://www.w3.org/2000/svg" xmlns:xlink="http://www.w3.org/1999/xlink"><style type="text/css">
	.st0{fill:#F26E91;}
	.st1{fill:#00A779;}
	.st2{fill:#C4FFC9;}
	.st3{fill:#AB630A;}
	.st4{fill:#C98C40;}
	.st5{fill:#15AA78;}
	.st6{fill:#FF9000;}
	.st7{fill:#FCEECF;}
	.st8{fill:#FFE940;}
	.st9{fill:#F0E3CE;}
	.st10{fill:#FFB5C5;}
	.st11{fill:#91EDFF;}
	.st12{fill:#7191F0;}
	.st13{fill:#363636;}
	.st14{fill:#565656;}
	.st15{fill:#F3DF4D;}
	.st16{fill:#CD4A77;}
	.st17{fill:#577AE6;}
	.st18{fill:#F4D100;}
</style><g id="float_ballon"><path class="st9" d="M250,51.57C140.41,51.57,51.57,140.41,51.57,250S140.41,448.43,250,448.43   c109.59,0,198.43-88.84,198.43-198.43S359.59,51.57,250,51.57z M250,356c-58.54,0-106-47.46-106-106s47.46-106,106-106   c58.54,0,106,47.46,106,106S308.54,356,250,356z"/><g><path class="st0" d="M250,144c16.33,0,31.8,3.7,45.62,10.3l46.3-80.19C314.44,59.72,283.17,51.57,250,51.57    c-33.27,0-64.61,8.2-92.15,22.67l46.29,80.17C218.01,147.74,233.57,144,250,144z"/><path class="st0" d="M250,356c-16.43,0-31.99-3.74-45.86-10.41l-46.29,80.17c27.54,14.47,58.89,22.67,92.15,22.67    c33.17,0,64.44-8.15,91.92-22.54l-46.3-80.19C281.8,352.3,266.33,356,250,356z"/><path class="st0" d="M356,250c0,15.89-3.5,30.95-9.76,44.48l80.24,46.33c14.03-27.21,21.96-58.08,21.96-90.81    s-7.93-63.59-21.96-90.81l-80.24,46.33C352.5,219.05,356,234.11,356,250z"/><path class="st0" d="M144,250c0-16.88,3.95-32.83,10.97-46.99l-80.15-46.27C59.99,184.54,51.57,216.28,51.57,250    c0,33.72,8.42,65.46,23.25,93.27l80.15-46.27C147.95,282.83,144,266.88,144,250z"/></g></g></svg>