<?xml version="1.0" ?><svg id="Layer_1" style="enable-background:new 0 0 500 500;" version="1.1" viewBox="0 0 500 500" xml:space="preserve" xmlns="http://www.w3.org/2000/svg" xmlns:xlink="http://www.w3.org/1999/xlink"><style type="text/css">
	.st0{fill:#F26E91;}
	.st1{fill:#00A779;}
	.st2{fill:#C4FFC9;}
	.st3{fill:#AB630A;}
	.st4{fill:#C98C40;}
	.st5{fill:#15AA78;}
	.st6{fill:#FF9000;}
	.st7{fill:#FCEECF;}
	.st8{fill:#FFE940;}
	.st9{fill:#F0E3CE;}
	.st10{fill:#FFB5C5;}
	.st11{fill:#91EDFF;}
	.st12{fill:#7191F0;}
	.st13{fill:#363636;}
	.st14{fill:#565656;}
	.st15{fill:#F3DF4D;}
	.st16{fill:#CD4A77;}
	.st17{fill:#577AE6;}
	.st18{fill:#F4D100;}
</style><g id="umbrella"><path class="st4" d="M216.09,461.61c-5.9-19.75-24.2-34.16-45.87-34.16c-21.67,0-39.97,14.4-45.87,34.16H216.09z"/><g><g><rect class="st4" height="237.56" transform="matrix(0.9509 0.3096 -0.3096 0.9509 117.0256 -44.9881)" width="7.92" x="196.31" y="227.46"/><g><path class="st6" d="M326.08,54.19c0,0,199.25,80.19,121.23,294.38c0,0-50.91-41.82-127.58-28.66      C319.73,319.91,419.94,191.42,326.08,54.19z"/><path class="st0" d="M326.08,54.19c0,0-195.85-81.77-291.5,126.78c0,0,75.81,12.93,110.71,75.64      C145.28,256.6,162.58,86.37,326.08,54.19z"/><path class="st12" d="M145.28,256.6c0,0,103.27-32.88,174.45,63.32c0,0,102.5-129.97,6.35-265.73      C326.08,54.19,168.68,75.07,145.28,256.6z"/></g></g></g></g></svg>