<?xml version="1.0" ?><svg id="Layer_1" style="enable-background:new 0 0 500 500;" version="1.1" viewBox="0 0 500 500" xml:space="preserve" xmlns="http://www.w3.org/2000/svg" xmlns:xlink="http://www.w3.org/1999/xlink"><style type="text/css">
	.st0{fill:#F26E91;}
	.st1{fill:#00A779;}
	.st2{fill:#C4FFC9;}
	.st3{fill:#AB630A;}
	.st4{fill:#C98C40;}
	.st5{fill:#15AA78;}
	.st6{fill:#FF9000;}
	.st7{fill:#FCEECF;}
	.st8{fill:#FFE940;}
	.st9{fill:#F0E3CE;}
	.st10{fill:#FFB5C5;}
	.st11{fill:#91EDFF;}
	.st12{fill:#7191F0;}
	.st13{fill:#363636;}
	.st14{fill:#565656;}
	.st15{fill:#F3DF4D;}
	.st16{fill:#CD4A77;}
	.st17{fill:#577AE6;}
	.st18{fill:#F4D100;}
</style><g id="watermelon"><g><path class="st0" d="M50.82,406.8L235.1,34.33c5.11-10.34,19.83-10.41,25.05-0.13l189.03,372.6    C449.18,406.8,250,556.81,50.82,406.8z"/><g><path class="st1" d="M50.82,406.8L69,370.05c0,0,172.67,118.89,361.54,0l18.64,36.75C449.18,406.8,250,556.5,50.82,406.8z"/><path class="st2" d="M430.54,370.05l-10.11-19.93c0,0-170.6,109.17-341.57,0L69,370.05C69,370.05,241.88,488.73,430.54,370.05z"/></g></g><g><path class="st3" d="M261.78,125.95c0,0-18.77,22.52-9.38,35.36c4.51,6.17,14.26,6.17,18.77,0    C280.55,148.47,261.78,125.95,261.78,125.95z"/><g><path class="st3" d="M199.32,205.12c0,0-18.77,22.52-9.38,35.36c4.51,6.17,14.26,6.17,18.77,0     C218.09,227.64,199.32,205.12,199.32,205.12z"/><path class="st3" d="M302.38,256.75c0,0-18.77,22.52-9.38,35.36c4.51,6.17,14.26,6.17,18.77,0     C321.15,279.27,302.38,256.75,302.38,256.75z"/><path class="st3" d="M216.67,315.96c0,0-18.77,22.52-9.38,35.36c4.51,6.17,14.26,6.17,18.77,0     C235.44,338.48,216.67,315.96,216.67,315.96z"/></g></g></g></svg>