<svg width="181" height="163" viewBox="0 0 181 163" fill="none" xmlns="http://www.w3.org/2000/svg">
<path d="M64 23L78.3689 67.2229H124.868L87.2494 94.5542L101.618 138.777L64 111.446L26.3817 138.777L40.7506 94.5542L3.13238 67.2229H49.6311L64 23Z" fill="#F2B415"/>
<path d="M127.5 0L132.552 15.5471H148.899L135.674 25.1558L140.725 40.7029L127.5 31.0942L114.275 40.7029L119.326 25.1558L106.101 15.5471H122.448L127.5 0Z" fill="#F2B415"/>
<path d="M148.574 112.514L144.494 128.344L158.288 137.116L141.972 138.127L137.891 153.957L131.888 138.752L115.572 139.763L128.178 129.355L122.175 114.15L135.969 122.922L148.574 112.514Z" fill="#F2B415"/>
<path d="M158.5 42L163.552 57.5471H179.899L166.674 67.1558L171.725 82.7029L158.5 73.0942L145.275 82.7029L150.326 67.1558L137.101 57.5471H153.448L158.5 42Z" fill="#F2B415"/>
</svg>
