<svg width="34" height="34" viewBox="0 0 34 34" fill="none" xmlns="http://www.w3.org/2000/svg">
<rect width="7" height="7" fill="#4D4545"/>
<rect width="7" height="7" fill="#4D4545"/>
<rect width="7" height="7" fill="#4D4545"/>
<rect x="18" width="7" height="7" fill="#4D4545"/>
<rect x="18" width="7" height="7" fill="#4D4545"/>
<rect x="18" width="7" height="7" fill="#4D4545"/>
<rect x="27" width="7" height="7" fill="#4D4545"/>
<rect x="27" width="7" height="7" fill="#4D4545"/>
<rect x="27" width="7" height="7" fill="#4D4545"/>
<rect x="9" width="7" height="7" fill="#4D4545"/>
<rect x="9" width="7" height="7" fill="#4D4545"/>
<rect x="9" width="7" height="7" fill="#4D4545"/>
<rect y="27" width="7" height="7" fill="#4D4545"/>
<rect y="27" width="7" height="7" fill="#4D4545"/>
<rect y="27" width="7" height="7" fill="#4D4545"/>
<rect x="18" y="27" width="7" height="7" fill="#4D4545"/>
<rect x="18" y="27" width="7" height="7" fill="#4D4545"/>
<rect x="18" y="27" width="7" height="7" fill="#4D4545"/>
<rect x="27" y="27" width="7" height="7" fill="#4D4545"/>
<rect x="27" y="27" width="7" height="7" fill="#4D4545"/>
<rect x="27" y="27" width="7" height="7" fill="#4D4545"/>
<rect x="9" y="27" width="7" height="7" fill="#4D4545"/>
<rect x="9" y="27" width="7" height="7" fill="#4D4545"/>
<rect x="9" y="27" width="7" height="7" fill="#4D4545"/>
<rect y="18" width="7" height="7" fill="#4D4545"/>
<rect y="18" width="7" height="7" fill="#4D4545"/>
<rect y="18" width="7" height="7" fill="#4D4545"/>
<rect x="18" y="18" width="7" height="7" fill="#4D4545"/>
<rect x="18" y="18" width="7" height="7" fill="#4D4545"/>
<rect x="18" y="18" width="7" height="7" fill="#4D4545"/>
<rect x="27" y="18" width="7" height="7" fill="#4D4545"/>
<rect x="27" y="18" width="7" height="7" fill="#4D4545"/>
<rect x="27" y="18" width="7" height="7" fill="#4D4545"/>
<rect x="9" y="18" width="7" height="7" fill="#4D4545"/>
<rect x="9" y="18" width="7" height="7" fill="#4D4545"/>
<rect x="9" y="18" width="7" height="7" fill="#4D4545"/>
<rect y="9" width="7" height="7" fill="#4D4545"/>
<rect y="9" width="7" height="7" fill="#4D4545"/>
<rect y="9" width="7" height="7" fill="#4D4545"/>
<rect x="18" y="9" width="7" height="7" fill="#4D4545"/>
<rect x="18" y="9" width="7" height="7" fill="#4D4545"/>
<rect x="18" y="9" width="7" height="7" fill="#4D4545"/>
<rect x="27" y="9" width="7" height="7" fill="#4D4545"/>
<rect x="27" y="9" width="7" height="7" fill="#4D4545"/>
<rect x="27" y="9" width="7" height="7" fill="#4D4545"/>
<rect x="9" y="9" width="7" height="7" fill="#4D4545"/>
<rect x="9" y="9" width="7" height="7" fill="#4D4545"/>
<rect x="9" y="9" width="7" height="7" fill="#4D4545"/>
</svg>
